<svg xmlns="http://www.w3.org/2000/svg" width="567" height="176" viewBox="0 0 567 176" role="img"><defs><linearGradient id="screenLG" x1="0" y1="0" x2="0" y2="1"><stop offset="0" stop-color="#1b1b23"/><stop offset="0.5" stop-color="#131319"/><stop offset="1" stop-color="#0c0c0e"/></linearGradient><linearGradient id="bevelLG" x1="0" y1="0" x2="0" y2="1"><stop offset="0" stop-color="#3d3d49"/><stop offset="1" stop-color="#20202b"/></linearGradient><linearGradient id="sheenLG" x1="0" y1="0" x2="0" y2="1"><stop offset="0" stop-color="#ffffff" stop-opacity="0.10"/><stop offset="1" stop-color="#ffffff" stop-opacity="0"/></linearGradient><linearGradient id="eyeLG" x1="0" y1="0" x2="0" y2="1"><stop offset="0" stop-color="#a99cff"/><stop offset="0.5" stop-color="#8b7bff"/><stop offset="1" stop-color="#5e46df"/></linearGradient><radialGradient id="hlLG" cx="50%" cy="50%" r="50%"><stop offset="0" stop-color="#ffffff" stop-opacity="0.92"/><stop offset="0.7" stop-color="#ffffff" stop-opacity="0.5"/><stop offset="1" stop-color="#ffffff" stop-opacity="0"/></radialGradient><filter id="softLG" x="-60%" y="-60%" width="220%" height="220%"><feGaussianBlur stdDeviation="4"/></filter><filter id="featherLG" x="-80%" y="-80%" width="260%" height="260%"><feGaussianBlur stdDeviation="1.1"/></filter></defs><g transform="translate(0,29.1) scale(0.46)"><rect x="20" y="20" width="216" height="216" rx="52" fill="url(#screenLG)" stroke="url(#bevelLG)" stroke-width="4"/><rect x="36" y="32" width="184" height="60" rx="34" fill="url(#sheenLG)"/><ellipse cx="128" cy="206" rx="80" ry="16" fill="#000" opacity="0.20" filter="url(#softLG)"/><rect x="78" y="98" width="44" height="58" rx="20" fill="url(#eyeLG)"/><circle cx="91" cy="113" r="9" fill="url(#hlLG)"/><circle cx="111" cy="141" r="3.2" fill="#ffffff" opacity="0.55"/><rect x="134" y="98" width="44" height="58" rx="20" fill="url(#eyeLG)"/><circle cx="147" cy="113" r="9" fill="url(#hlLG)"/><circle cx="167" cy="141" r="3.2" fill="#ffffff" opacity="0.55"/><ellipse cx="128" cy="167" rx="32" ry="10" fill="#7c6bff" opacity="0.14" filter="url(#softLG)"/><rect x="99" y="160" width="58" height="15" rx="7.5" fill="#7c6bff"/></g><path d="M5.04 -0.00 L5.04 -58.40 L24.00 -58.40 Q30.08 -58.40 34.60 -56.08 Q39.12 -53.76 41.64 -49.56 Q44.16 -45.36 44.16 -39.68 L44.16 -18.80 Q44.16 -13.20 41.64 -8.96 Q39.12 -4.73 34.60 -2.36 Q30.08 -0.00 24.00 -0.00 L5.04 -0.00 Z M17.04 -10.80 L24.00 -10.80 Q27.60 -10.80 29.88 -13.04 Q32.16 -15.28 32.16 -18.80 L32.16 -39.68 Q32.16 -43.20 29.88 -45.40 Q27.60 -47.60 24.00 -47.60 L17.04 -47.60 L17.04 -10.80 Z M72.00 0.80 Q66.16 0.80 61.84 -1.40 Q57.52 -3.60 55.16 -7.56 Q52.80 -11.53 52.80 -16.80 L52.80 -27.20 Q52.80 -32.48 55.16 -36.44 Q57.52 -40.40 61.84 -42.60 Q66.16 -44.80 72.00 -44.80 Q77.92 -44.80 82.20 -42.60 Q86.47 -40.40 88.84 -36.44 Q91.20 -32.48 91.20 -27.20 L91.20 -16.80 Q91.20 -11.53 88.84 -7.56 Q86.47 -3.60 82.20 -1.40 Q77.92 0.80 72.00 0.80 Z M72.00 -9.60 Q75.52 -9.60 77.36 -11.48 Q79.20 -13.36 79.20 -16.80 L79.20 -27.20 Q79.20 -30.73 77.36 -32.56 Q75.52 -34.40 72.00 -34.40 Q68.56 -34.40 66.67 -32.56 Q64.80 -30.73 64.80 -27.20 L64.80 -16.80 Q64.80 -13.36 66.67 -11.48 Q68.56 -9.60 72.00 -9.60 Z M120.72 0.80 Q114.87 0.80 110.47 -1.40 Q106.07 -3.60 103.67 -7.56 Q101.27 -11.53 101.27 -16.80 L101.27 -27.20 Q101.27 -32.56 103.67 -36.48 Q106.07 -40.40 110.47 -42.60 Q114.87 -44.80 120.72 -44.80 Q129.44 -44.80 134.64 -40.40 Q139.84 -36.00 140.16 -28.40 L128.47 -28.40 Q128.24 -31.20 126.11 -32.80 Q124.00 -34.40 120.72 -34.40 Q117.12 -34.40 115.20 -32.56 Q113.27 -30.73 113.27 -27.20 L113.27 -16.80 Q113.27 -13.36 115.20 -11.48 Q117.12 -9.60 120.72 -9.60 Q124.00 -9.60 126.11 -11.16 Q128.24 -12.73 128.47 -15.60 L140.16 -15.60 Q139.84 -8.00 134.64 -3.60 Q129.44 0.80 120.72 0.80 Z M149.67 -0.00 L149.67 -58.40 L161.67 -58.40 L161.67 -27.36 L167.76 -27.36 L176.96 -44.00 L190.16 -44.00 L177.92 -22.48 L190.40 -0.00 L176.96 -0.00 L167.67 -17.28 L161.67 -17.28 L161.67 -0.00 L149.67 -0.00 Z M210.00 -0.00 L210.00 -47.60 L195.20 -47.60 L195.20 -58.40 L236.80 -58.40 L236.80 -47.60 L222.00 -47.60 L222.00 -0.00 L210.00 -0.00 Z M264.07 0.80 Q258.24 0.80 253.87 -1.40 Q249.52 -3.60 247.16 -7.56 Q244.80 -11.53 244.80 -16.80 L244.80 -27.20 Q244.80 -32.48 247.16 -36.44 Q249.52 -40.40 253.87 -42.60 Q258.24 -44.80 264.07 -44.80 Q269.92 -44.80 274.20 -42.60 Q278.47 -40.40 280.84 -36.44 Q283.20 -32.48 283.20 -27.20 L283.20 -19.04 L256.24 -19.04 L256.24 -16.80 Q256.24 -12.64 258.20 -10.71 Q260.16 -8.80 264.07 -8.80 Q266.64 -8.80 268.55 -9.60 Q270.47 -10.40 270.80 -12.00 L282.56 -12.00 Q281.27 -6.24 276.24 -2.71 Q271.20 0.80 264.07 0.80 Z M256.24 -27.20 L256.24 -26.16 L271.76 -26.33 L271.76 -27.36 Q271.76 -31.44 269.87 -33.68 Q268.00 -35.93 264.07 -35.93 Q260.16 -35.93 258.20 -33.60 Q256.24 -31.28 256.24 -27.20 Z M294.87 -0.00 L294.87 -44.00 L306.47 -44.00 L306.47 -35.68 Q307.44 -39.93 310.67 -42.36 Q313.92 -44.80 318.80 -44.80 Q325.44 -44.80 329.20 -40.31 Q332.96 -35.84 332.96 -28.00 L332.96 -23.60 L320.96 -23.60 L320.96 -27.20 Q320.96 -30.64 319.11 -32.51 Q317.27 -34.40 313.92 -34.40 Q310.56 -34.40 308.71 -32.27 Q306.87 -30.16 306.87 -26.24 L306.87 -0.00 L294.87 -0.00 Z M339.04 -0.00 L339.04 -44.00 L348.87 -44.00 L348.87 -37.20 L349.04 -37.20 Q349.27 -40.56 351.27 -42.68 Q353.27 -44.80 356.40 -44.80 Q359.27 -44.80 361.40 -42.76 Q363.52 -40.73 364.16 -37.44 Q364.40 -40.80 366.47 -42.80 Q368.56 -44.80 371.67 -44.80 Q375.60 -44.80 378.27 -41.68 Q380.96 -38.56 380.96 -33.60 L380.96 -0.00 L370.64 -0.00 L370.64 -32.24 Q370.64 -36.08 367.60 -36.08 Q364.72 -36.08 364.72 -32.24 L364.72 -0.00 L355.27 -0.00 L355.27 -32.24 Q355.27 -36.08 352.40 -36.08 Q349.36 -36.08 349.36 -32.24 L349.36 -0.00 L339.04 -0.00 Z" transform="translate(132.7,116.0)" fill="#e8e8ed" fill-rule="evenodd"/><rect x="525.7" y="58.0" width="18" height="60" rx="5" fill="#7c6bff"><animate attributeName="opacity" values="1;1;0;0;1" keyTimes="0;0.5;0.52;0.98;1" dur="1.3s" repeatCount="indefinite"/></rect></svg>