<svg xmlns="http://www.w3.org/2000/svg" width="256" height="256" viewBox="0 0 256 256" role="img"><defs><radialGradient id="glowAS" cx="50%" cy="47%" r="56%"><stop offset="0" stop-color="#7c6bff" stop-opacity="0.22"/><stop offset="1" stop-color="#7c6bff" stop-opacity="0"/></radialGradient><linearGradient id="screenAS" x1="0" y1="0" x2="0" y2="1"><stop offset="0" stop-color="#1b1b23"/><stop offset="0.5" stop-color="#131319"/><stop offset="1" stop-color="#0c0c0e"/></linearGradient><linearGradient id="bevelAS" x1="0" y1="0" x2="0" y2="1"><stop offset="0" stop-color="#3d3d49"/><stop offset="1" stop-color="#20202b"/></linearGradient><linearGradient id="sheenAS" x1="0" y1="0" x2="0" y2="1"><stop offset="0" stop-color="#ffffff" stop-opacity="0.10"/><stop offset="1" stop-color="#ffffff" stop-opacity="0"/></linearGradient><linearGradient id="eyeAS" x1="0" y1="0" x2="0" y2="1"><stop offset="0" stop-color="#a99cff"/><stop offset="0.5" stop-color="#8b7bff"/><stop offset="1" stop-color="#5e46df"/></linearGradient><radialGradient id="hlAS" cx="50%" cy="50%" r="50%"><stop offset="0" stop-color="#ffffff" stop-opacity="0.92"/><stop offset="0.7" stop-color="#ffffff" stop-opacity="0.5"/><stop offset="1" stop-color="#ffffff" stop-opacity="0"/></radialGradient><filter id="softAS" x="-60%" y="-60%" width="220%" height="220%"><feGaussianBlur stdDeviation="4"/></filter><filter id="featherAS" x="-80%" y="-80%" width="260%" height="260%"><feGaussianBlur stdDeviation="1.1"/></filter></defs><circle cx="128" cy="120" r="132" fill="url(#glowAS)"/><rect x="98.0" y="180" width="20" height="32" rx="10" fill="#141419" stroke="url(#bevelAS)" stroke-width="2.5"/><rect x="138.0" y="180" width="20" height="32" rx="10" fill="#141419" stroke="url(#bevelAS)" stroke-width="2.5"/><rect x="56" y="50" width="144" height="144" rx="44" fill="url(#screenAS)" stroke="url(#bevelAS)" stroke-width="3"/><rect x="68" y="60" width="120" height="48" rx="26" fill="url(#sheenAS)"/><ellipse cx="128" cy="190" rx="60" ry="15" fill="#000" opacity="0.22" filter="url(#softAS)"/><circle cx="128" cy="120" r="82" fill="none" stroke="#fbbf24" stroke-width="2.4" opacity="0"><animate attributeName="r" values="72;104" dur="2s" repeatCount="indefinite"/><animate attributeName="opacity" values="0.45;0" dur="2s" repeatCount="indefinite"/></circle><circle cx="128" cy="26" r="19" fill="#fbbf24" opacity="0.13" filter="url(#softAS)"/><path d="M8.09 -10.81 L7.86 -20.24 L12.46 -20.24 Q14.35 -20.24 15.45 -21.18 Q16.56 -22.12 16.56 -23.69 Q16.56 -25.30 15.43 -26.22 Q14.30 -27.14 12.42 -27.14 L4.83 -27.14 L4.83 -33.58 L11.96 -33.58 Q15.50 -33.58 18.08 -32.36 Q20.66 -31.14 22.06 -28.93 Q23.46 -26.72 23.46 -23.69 Q23.46 -20.79 22.26 -18.63 Q21.07 -16.47 18.90 -15.24 Q16.75 -14.03 13.84 -14.03 L13.84 -10.81 L8.09 -10.81 Z M10.31 0.23 Q8.74 0.23 7.80 -0.67 Q6.86 -1.57 6.86 -2.99 Q6.86 -4.46 7.80 -5.33 Q8.74 -6.21 10.31 -6.21 L11.69 -6.21 Q13.25 -6.21 14.19 -5.33 Q15.14 -4.46 15.14 -2.99 Q15.14 -1.52 14.19 -0.64 Q13.25 0.23 11.64 0.23 L10.31 0.23 Z" transform="translate(113.86,41.67)" fill="#fbbf24" fill-rule="evenodd"/><path d="M91 85.0 Q104 78.0 117 83.0" fill="none" stroke="#7c6bff" stroke-width="5" stroke-linecap="round"/><path d="M139 83.0 Q152 78.0 165 85.0" fill="none" stroke="#7c6bff" stroke-width="5" stroke-linecap="round"/><rect x="87.0" y="94.0" width="34" height="46" rx="16" fill="url(#eyeAS)"/><path d="M92.0 133.0 q12.0 9 24 0" fill="none" stroke="#a99cff" stroke-width="2.4" opacity="0.45" filter="url(#featherAS)"/><circle cx="97" cy="106.0" r="7" fill="url(#hlAS)"/><circle cx="113" cy="127.0" r="2.6" fill="#ffffff" opacity="0.55"/><rect x="135.0" y="94.0" width="34" height="46" rx="16" fill="url(#eyeAS)"/><path d="M140.0 133.0 q12.0 9 24 0" fill="none" stroke="#a99cff" stroke-width="2.4" opacity="0.45" filter="url(#featherAS)"/><circle cx="145" cy="106.0" r="7" fill="url(#hlAS)"/><circle cx="161" cy="127.0" r="2.6" fill="#ffffff" opacity="0.55"/><rect x="117" y="146" width="22" height="8" rx="4" fill="#7c6bff"/><rect x="92" y="220" width="72" height="26" rx="8" fill="#0c0c0e" stroke="#26262e" stroke-width="2"/><path d="M3.70 2.20 L3.70 -16.60 L9.30 -16.60 L9.30 -14.30 L6.20 -14.30 L6.20 -0.10 L9.30 -0.10 L9.30 2.20 L3.70 2.20 Z M15.30 3.60 L16.86 -0.60 L12.72 -11.00 L15.36 -11.00 L17.48 -5.38 Q17.66 -4.88 17.84 -4.29 Q18.02 -3.70 18.10 -3.20 Q18.16 -3.70 18.33 -4.29 Q18.50 -4.88 18.68 -5.38 L20.64 -11.00 L23.28 -11.00 L17.92 3.60 L15.30 3.60 Z M25.20 2.20 L32.20 -16.60 L34.80 -16.60 L27.80 2.20 L25.20 2.20 Z M37.54 -0.00 L37.54 -11.00 L39.98 -11.00 L39.98 -8.94 Q40.18 -9.98 40.96 -10.59 Q41.74 -11.20 42.94 -11.20 Q44.56 -11.20 45.53 -10.12 Q46.50 -9.04 46.50 -7.22 L46.50 -0.00 L44.00 -0.00 L44.00 -6.92 Q44.00 -7.94 43.47 -8.49 Q42.94 -9.04 42.04 -9.04 Q41.10 -9.04 40.57 -8.48 Q40.04 -7.92 40.04 -6.88 L40.04 -0.00 L37.54 -0.00 Z M50.70 2.20 L50.70 -0.10 L53.80 -0.10 L53.80 -14.30 L50.70 -14.30 L50.70 -16.60 L56.30 -16.60 L56.30 2.20 L50.70 2.20 Z" transform="translate(98.00,239.50)" fill="#a99cff" fill-rule="evenodd"/></svg>