<svg xmlns="http://www.w3.org/2000/svg" width="256" height="256" viewBox="0 0 256 256" role="img"><defs><radialGradient id="glowRE" cx="50%" cy="47%" r="56%"><stop offset="0" stop-color="#7c6bff" stop-opacity="0.22"/><stop offset="1" stop-color="#7c6bff" stop-opacity="0"/></radialGradient><linearGradient id="screenRE" x1="0" y1="0" x2="0" y2="1"><stop offset="0" stop-color="#1b1b23"/><stop offset="0.5" stop-color="#131319"/><stop offset="1" stop-color="#0c0c0e"/></linearGradient><linearGradient id="bevelRE" x1="0" y1="0" x2="0" y2="1"><stop offset="0" stop-color="#3d3d49"/><stop offset="1" stop-color="#20202b"/></linearGradient><linearGradient id="sheenRE" x1="0" y1="0" x2="0" y2="1"><stop offset="0" stop-color="#ffffff" stop-opacity="0.10"/><stop offset="1" stop-color="#ffffff" stop-opacity="0"/></linearGradient><linearGradient id="eyeRE" x1="0" y1="0" x2="0" y2="1"><stop offset="0" stop-color="#a99cff"/><stop offset="0.5" stop-color="#8b7bff"/><stop offset="1" stop-color="#5e46df"/></linearGradient><radialGradient id="hlRE" cx="50%" cy="50%" r="50%"><stop offset="0" stop-color="#ffffff" stop-opacity="0.92"/><stop offset="0.7" stop-color="#ffffff" stop-opacity="0.5"/><stop offset="1" stop-color="#ffffff" stop-opacity="0"/></radialGradient><filter id="softRE" x="-60%" y="-60%" width="220%" height="220%"><feGaussianBlur stdDeviation="4"/></filter><filter id="featherRE" x="-80%" y="-80%" width="260%" height="260%"><feGaussianBlur stdDeviation="1.1"/></filter></defs><circle cx="128" cy="120" r="132" fill="url(#glowRE)"/><rect x="98.0" y="180" width="20" height="32" rx="10" fill="#141419" stroke="url(#bevelRE)" stroke-width="2.5"/><rect x="138.0" y="180" width="20" height="32" rx="10" fill="#141419" stroke="url(#bevelRE)" stroke-width="2.5"/><rect x="56" y="50" width="144" height="144" rx="44" fill="url(#screenRE)" stroke="url(#bevelRE)" stroke-width="3"/><rect x="68" y="60" width="120" height="48" rx="26" fill="url(#sheenRE)"/><ellipse cx="128" cy="190" rx="60" ry="15" fill="#000" opacity="0.22" filter="url(#softRE)"/><rect x="87.0" y="94.0" width="34" height="46" rx="16" fill="url(#eyeRE)"/><path d="M92.0 133.0 q12.0 9 24 0" fill="none" stroke="#a99cff" stroke-width="2.4" opacity="0.45" filter="url(#featherRE)"/><circle cx="97" cy="106.0" r="7" fill="url(#hlRE)"/><circle cx="113" cy="127.0" r="2.6" fill="#ffffff" opacity="0.55"/><rect x="135.0" y="94.0" width="34" height="46" rx="16" fill="url(#eyeRE)"/><path d="M140.0 133.0 q12.0 9 24 0" fill="none" stroke="#a99cff" stroke-width="2.4" opacity="0.45" filter="url(#featherRE)"/><circle cx="145" cy="106.0" r="7" fill="url(#hlRE)"/><circle cx="161" cy="127.0" r="2.6" fill="#ffffff" opacity="0.55"/><ellipse cx="128" cy="152" rx="24" ry="8" fill="#7c6bff" opacity="0.14" filter="url(#softRE)"/><path d="M110 150 Q128 164 146 150" fill="none" stroke="#7c6bff" stroke-width="8" stroke-linecap="round"/></svg>