<svg xmlns="http://www.w3.org/2000/svg" width="256" height="256" viewBox="0 0 256 256" role="img"><defs><radialGradient id="glowHA" cx="50%" cy="47%" r="56%"><stop offset="0" stop-color="#7c6bff" stop-opacity="0.22"/><stop offset="1" stop-color="#7c6bff" stop-opacity="0"/></radialGradient><linearGradient id="screenHA" x1="0" y1="0" x2="0" y2="1"><stop offset="0" stop-color="#1b1b23"/><stop offset="0.5" stop-color="#131319"/><stop offset="1" stop-color="#0c0c0e"/></linearGradient><linearGradient id="bevelHA" x1="0" y1="0" x2="0" y2="1"><stop offset="0" stop-color="#3d3d49"/><stop offset="1" stop-color="#20202b"/></linearGradient><linearGradient id="sheenHA" x1="0" y1="0" x2="0" y2="1"><stop offset="0" stop-color="#ffffff" stop-opacity="0.10"/><stop offset="1" stop-color="#ffffff" stop-opacity="0"/></linearGradient><linearGradient id="eyeHA" x1="0" y1="0" x2="0" y2="1"><stop offset="0" stop-color="#a99cff"/><stop offset="0.5" stop-color="#8b7bff"/><stop offset="1" stop-color="#5e46df"/></linearGradient><radialGradient id="hlHA" cx="50%" cy="50%" r="50%"><stop offset="0" stop-color="#ffffff" stop-opacity="0.92"/><stop offset="0.7" stop-color="#ffffff" stop-opacity="0.5"/><stop offset="1" stop-color="#ffffff" stop-opacity="0"/></radialGradient><filter id="softHA" x="-60%" y="-60%" width="220%" height="220%"><feGaussianBlur stdDeviation="4"/></filter><filter id="featherHA" x="-80%" y="-80%" width="260%" height="260%"><feGaussianBlur stdDeviation="1.1"/></filter></defs><circle cx="128" cy="120" r="132" fill="url(#glowHA)"/><rect x="98.0" y="180" width="20" height="32" rx="10" fill="#141419" stroke="url(#bevelHA)" stroke-width="2.5"/><rect x="138.0" y="180" width="20" height="32" rx="10" fill="#141419" stroke="url(#bevelHA)" stroke-width="2.5"/><rect x="56" y="50" width="144" height="144" rx="44" fill="url(#screenHA)" stroke="url(#bevelHA)" stroke-width="3"/><rect x="68" y="60" width="120" height="48" rx="26" fill="url(#sheenHA)"/><ellipse cx="128" cy="190" rx="60" ry="15" fill="#000" opacity="0.22" filter="url(#softHA)"/><path d="M80 75 C82.8 79.2 82.8 79.2 87 82 C82.8 84.8 82.8 84.8 80 89 C77.2 84.8 77.2 84.8 73 82 C77.2 79.2 77.2 79.2 80 75 Z" fill="#8d7dff"/><path d="M180 84.5 C182.2 87.8 182.2 87.8 185.5 90 C182.2 92.2 182.2 92.2 180 95.5 C177.8 92.2 177.8 92.2 174.5 90 C177.8 87.8 177.8 87.8 180 84.5 Z" fill="#a99cff"/><path d="M89 124 Q104 102 119 124" fill="none" stroke="#7c6bff" stroke-width="8" stroke-linecap="round"/><path d="M137 124 Q152 102 167 124" fill="none" stroke="#7c6bff" stroke-width="8" stroke-linecap="round"/><path d="M105 147 Q128 169 151 147" fill="none" stroke="#7c6bff" stroke-width="8.5" stroke-linecap="round"/></svg>