<svg xmlns="http://www.w3.org/2000/svg" viewBox="0 0 256 256" width="256" height="256" role="img" aria-label="munu sleeping">
  <title>munu — sleeping</title>
  <defs>
    <radialGradient id="ms-glow" cx="50%" cy="46%" r="55%">
      <stop offset="0%" stop-color="#7c6bff" stop-opacity="0.3"/>
      <stop offset="100%" stop-color="#7c6bff" stop-opacity="0"/>
    </radialGradient>
    <linearGradient id="ms-body" x1="0" y1="0" x2="0" y2="1">
      <stop offset="0%" stop-color="#9a8cff"/>
      <stop offset="100%" stop-color="#6d59ee"/>
    </linearGradient>
    <clipPath id="ms-clip">
      <path d="M128 34 C152 44 190 74 204 122 C220 172 192 214 128 214 C64 214 36 172 52 122 C66 74 104 44 128 34 Z"/>
    </clipPath>
  </defs>

  <circle cx="128" cy="120" r="120" fill="url(#ms-glow)"/>

  <ellipse cx="98" cy="218" rx="21" ry="12" fill="#5a47d6"/>
  <ellipse cx="158" cy="218" rx="21" ry="12" fill="#5a47d6"/>

  <path d="M114 44 L128 27 L142 44" fill="none" stroke="#b3a6ff" stroke-width="7" stroke-linecap="round" stroke-linejoin="round"/>

  <path d="M128 34 C152 44 190 74 204 122 C220 172 192 214 128 214 C64 214 36 172 52 122 C66 74 104 44 128 34 Z" fill="url(#ms-body)"/>
  <g clip-path="url(#ms-clip)">
    <ellipse cx="104" cy="86" rx="46" ry="32" fill="#ffffff" opacity="0.14"/>
  </g>

  <ellipse cx="71" cy="154" rx="14" ry="8" fill="#ff8ab6" opacity="0.45"/>
  <ellipse cx="185" cy="154" rx="14" ry="8" fill="#ff8ab6" opacity="0.45"/>

  <!-- closed resting eyes (calm down-arcs) -->
  <path d="M86 130 Q102 144 118 130" fill="none" stroke="#18141f" stroke-width="5.5" stroke-linecap="round"/>
  <path d="M138 130 Q154 144 170 130" fill="none" stroke="#18141f" stroke-width="5.5" stroke-linecap="round"/>

  <!-- tiny peaceful mouth -->
  <ellipse cx="128" cy="172" rx="6" ry="5" fill="#18141f"/>

  <!-- z z z -->
  <text x="176" y="78" font-family="-apple-system,BlinkMacSystemFont,'Segoe UI',Roboto,sans-serif" font-size="22" font-weight="700" fill="#b3a6ff" opacity="0.9">z</text>
  <text x="196" y="58" font-family="-apple-system,BlinkMacSystemFont,'Segoe UI',Roboto,sans-serif" font-size="28" font-weight="700" fill="#b3a6ff" opacity="0.75">z</text>
  <text x="220" y="40" font-family="-apple-system,BlinkMacSystemFont,'Segoe UI',Roboto,sans-serif" font-size="34" font-weight="700" fill="#b3a6ff" opacity="0.55">z</text>
</svg>
