<svg xmlns="http://www.w3.org/2000/svg" width="256" height="256" viewBox="0 0 256 256" role="img"><defs><radialGradient id="glowSL" cx="50%" cy="47%" r="56%"><stop offset="0" stop-color="#7c6bff" stop-opacity="0.22"/><stop offset="1" stop-color="#7c6bff" stop-opacity="0"/></radialGradient><linearGradient id="screenSL" x1="0" y1="0" x2="0" y2="1"><stop offset="0" stop-color="#1b1b23"/><stop offset="0.5" stop-color="#131319"/><stop offset="1" stop-color="#0c0c0e"/></linearGradient><linearGradient id="bevelSL" x1="0" y1="0" x2="0" y2="1"><stop offset="0" stop-color="#3d3d49"/><stop offset="1" stop-color="#20202b"/></linearGradient><linearGradient id="sheenSL" x1="0" y1="0" x2="0" y2="1"><stop offset="0" stop-color="#ffffff" stop-opacity="0.10"/><stop offset="1" stop-color="#ffffff" stop-opacity="0"/></linearGradient><linearGradient id="eyeSL" x1="0" y1="0" x2="0" y2="1"><stop offset="0" stop-color="#a99cff"/><stop offset="0.5" stop-color="#8b7bff"/><stop offset="1" stop-color="#5e46df"/></linearGradient><radialGradient id="hlSL" cx="50%" cy="50%" r="50%"><stop offset="0" stop-color="#ffffff" stop-opacity="0.92"/><stop offset="0.7" stop-color="#ffffff" stop-opacity="0.5"/><stop offset="1" stop-color="#ffffff" stop-opacity="0"/></radialGradient><filter id="softSL" x="-60%" y="-60%" width="220%" height="220%"><feGaussianBlur stdDeviation="4"/></filter><filter id="featherSL" x="-80%" y="-80%" width="260%" height="260%"><feGaussianBlur stdDeviation="1.1"/></filter></defs><circle cx="128" cy="120" r="132" fill="url(#glowSL)"/><rect x="98.0" y="180" width="20" height="32" rx="10" fill="#141419" stroke="url(#bevelSL)" stroke-width="2.5"/><rect x="138.0" y="180" width="20" height="32" rx="10" fill="#141419" stroke="url(#bevelSL)" stroke-width="2.5"/><rect x="56" y="50" width="144" height="144" rx="44" fill="url(#screenSL)" stroke="url(#bevelSL)" stroke-width="3"/><rect x="68" y="60" width="120" height="48" rx="26" fill="url(#sheenSL)"/><ellipse cx="128" cy="190" rx="60" ry="15" fill="#000" opacity="0.22" filter="url(#softSL)"/><path d="M178 92 h12 l-12 13 h12" stroke-width="3.4" fill="none" stroke="#a99cff" stroke-linecap="round" stroke-linejoin="round"/><path d="M198 74 h9 l-9 10 h9" stroke-width="2.8" fill="none" stroke="#a99cff" stroke-linecap="round" stroke-linejoin="round" opacity="0.85"/><path d="M214 60 h7 l-7 8 h7" stroke-width="2.3" fill="none" stroke="#a99cff" stroke-linecap="round" stroke-linejoin="round" opacity="0.7"/><path d="M90 114 Q104 129 118 114" fill="none" stroke="#7c6bff" stroke-width="7" stroke-linecap="round"/><path d="M138 114 Q152 129 166 114" fill="none" stroke="#7c6bff" stroke-width="7" stroke-linecap="round"/><rect x="117" y="146" width="22" height="8" rx="4" fill="#7c6bff"/></svg>