<svg xmlns="http://www.w3.org/2000/svg" width="256" height="256" viewBox="0 0 256 256" role="img"><defs><radialGradient id="glowWO" cx="50%" cy="47%" r="56%"><stop offset="0" stop-color="#7c6bff" stop-opacity="0.22"/><stop offset="1" stop-color="#7c6bff" stop-opacity="0"/></radialGradient><linearGradient id="screenWO" x1="0" y1="0" x2="0" y2="1"><stop offset="0" stop-color="#1b1b23"/><stop offset="0.5" stop-color="#131319"/><stop offset="1" stop-color="#0c0c0e"/></linearGradient><linearGradient id="bevelWO" x1="0" y1="0" x2="0" y2="1"><stop offset="0" stop-color="#3d3d49"/><stop offset="1" stop-color="#20202b"/></linearGradient><linearGradient id="sheenWO" x1="0" y1="0" x2="0" y2="1"><stop offset="0" stop-color="#ffffff" stop-opacity="0.10"/><stop offset="1" stop-color="#ffffff" stop-opacity="0"/></linearGradient><linearGradient id="eyeWO" x1="0" y1="0" x2="0" y2="1"><stop offset="0" stop-color="#a99cff"/><stop offset="0.5" stop-color="#8b7bff"/><stop offset="1" stop-color="#5e46df"/></linearGradient><radialGradient id="hlWO" cx="50%" cy="50%" r="50%"><stop offset="0" stop-color="#ffffff" stop-opacity="0.92"/><stop offset="0.7" stop-color="#ffffff" stop-opacity="0.5"/><stop offset="1" stop-color="#ffffff" stop-opacity="0"/></radialGradient><filter id="softWO" x="-60%" y="-60%" width="220%" height="220%"><feGaussianBlur stdDeviation="4"/></filter><filter id="featherWO" x="-80%" y="-80%" width="260%" height="260%"><feGaussianBlur stdDeviation="1.1"/></filter></defs><circle cx="128" cy="120" r="132" fill="url(#glowWO)"/><rect x="98.0" y="180" width="20" height="32" rx="10" fill="#141419" stroke="url(#bevelWO)" stroke-width="2.5"/><rect x="138.0" y="180" width="20" height="32" rx="10" fill="#141419" stroke="url(#bevelWO)" stroke-width="2.5"/><rect x="56" y="50" width="144" height="144" rx="44" fill="url(#screenWO)" stroke="url(#bevelWO)" stroke-width="3"/><rect x="68" y="60" width="120" height="48" rx="26" fill="url(#sheenWO)"/><ellipse cx="128" cy="190" rx="60" ry="15" fill="#000" opacity="0.22" filter="url(#softWO)"/><path d="M176 60.5 C179.0 65.0 179.0 65.0 183.5 68 C179.0 71.0 179.0 71.0 176 75.5 C173.0 71.0 173.0 71.0 168.5 68 C173.0 65.0 173.0 65.0 176 60.5 Z" fill="#8d7dff"/><rect x="87.0" y="96.5" width="34" height="41" rx="16" fill="url(#eyeWO)"/><path d="M92.0 130.5 q12.0 9 24 0" fill="none" stroke="#a99cff" stroke-width="2.4" opacity="0.45" filter="url(#featherWO)"/><circle cx="97" cy="108.5" r="7" fill="url(#hlWO)"/><circle cx="113" cy="124.5" r="2.6" fill="#ffffff" opacity="0.55"/><rect x="135.0" y="96.5" width="34" height="41" rx="16" fill="url(#eyeWO)"/><path d="M140.0 130.5 q12.0 9 24 0" fill="none" stroke="#a99cff" stroke-width="2.4" opacity="0.45" filter="url(#featherWO)"/><circle cx="145" cy="108.5" r="7" fill="url(#hlWO)"/><circle cx="161" cy="124.5" r="2.6" fill="#ffffff" opacity="0.55"/><ellipse cx="128" cy="151" rx="24" ry="8" fill="#7c6bff" opacity="0.14" filter="url(#softWO)"/><rect x="108" y="145" width="40" height="10" rx="5" fill="#7c6bff"><animate attributeName="opacity" values="1;1;1;1;0.1;1" keyTimes="0;0.55;0.7;0.78;0.86;1" dur="1.7s" repeatCount="indefinite"/></rect><circle cx="108" cy="173" r="4.6" fill="#a99cff"><animate attributeName="opacity" values="0.2;1;0.2" dur="1.5s" begin="0.0s" repeatCount="indefinite"/></circle><circle cx="128" cy="173" r="4.6" fill="#a99cff"><animate attributeName="opacity" values="0.2;1;0.2" dur="1.5s" begin="0.22s" repeatCount="indefinite"/></circle><circle cx="148" cy="173" r="4.6" fill="#a99cff"><animate attributeName="opacity" values="0.2;1;0.2" dur="1.5s" begin="0.44s" repeatCount="indefinite"/></circle></svg>